<?xml version="1.0" encoding="UTF-8"?><svg id="Camada_1" xmlns="http://www.w3.org/2000/svg" viewBox="0 0 531.19 371.57"><defs><style>.cls-1{fill:#778e7f;}.cls-1,.cls-2,.cls-3,.cls-4,.cls-5,.cls-6,.cls-7,.cls-8,.cls-9,.cls-10,.cls-11,.cls-12,.cls-13,.cls-14,.cls-15,.cls-16,.cls-17,.cls-18,.cls-19,.cls-20,.cls-21,.cls-22,.cls-23,.cls-24,.cls-25,.cls-26,.cls-27,.cls-28,.cls-29,.cls-30,.cls-31,.cls-32,.cls-33,.cls-34,.cls-35,.cls-36,.cls-37,.cls-38,.cls-39,.cls-40,.cls-41,.cls-42,.cls-43,.cls-44,.cls-45,.cls-46,.cls-47,.cls-48,.cls-49,.cls-50,.cls-51,.cls-52,.cls-53,.cls-54,.cls-55,.cls-56,.cls-57,.cls-58,.cls-59,.cls-60,.cls-61,.cls-62,.cls-63,.cls-64,.cls-65,.cls-66,.cls-67,.cls-68,.cls-69,.cls-70,.cls-71,.cls-72,.cls-73,.cls-74,.cls-75{stroke-width:0px;}.cls-2{fill:#1d2a26;}.cls-3{fill:#818b8b;}.cls-4{fill:#93a298;}.cls-5{fill:#abb2a2;}.cls-6{fill:#050503;}.cls-7{fill:#4e5a56;}.cls-8{fill:#96a8a0;}.cls-9{fill:#040404;}.cls-10{fill:#8c8d8e;}.cls-11{fill:#9aaaa6;}.cls-12{fill:#e8e7da;}.cls-13{fill:#efe9d8;}.cls-14{fill:#a9b4ac;}.cls-15{fill:#1e1c17;}.cls-16{fill:#4a5c4d;}.cls-17{fill:#090706;}.cls-19{fill:#070404;}.cls-20{fill:#eeead6;}.cls-21{fill:#e6f0e9;}.cls-22{fill:#b2b3b3;}.cls-23{fill:#96a49c;}.cls-24{fill:#9daca1;}.cls-25{fill:#92a8a0;}.cls-26{fill:#040304;}.cls-27{fill:#434545;}.cls-28{fill:#a9b2ae;}.cls-29{fill:#b3b9b2;}.cls-30{fill:#a8b1a4;}.cls-31{fill:#708a86;}.cls-32{fill:#818383;}.cls-33{fill:#a7a9aa;}.cls-34{fill:#100e0a;}.cls-35{fill:#a5bbb3;}.cls-36{fill:#c1c5b7;}.cls-37{fill:#7e8b80;}.cls-38{fill:#8fa29a;}.cls-39{fill:#bbc0b1;}.cls-40{fill:#b6b9af;}.cls-41{fill:#9fa89b;}.cls-42{fill:#050404;}.cls-43{fill:#acb8ac;}.cls-44{fill:#c1c2c3;}.cls-45{fill:#cfd4d5;}.cls-46{fill:#050403;}.cls-47{fill:#4c5f5b;}.cls-48{fill:#dfdecb;}.cls-49{fill:#9da0a0;}.cls-50{fill:#21201b;}.cls-51{fill:#030202;}.cls-52{fill:#afb4b0;}.cls-53{fill:#dad7da;}.cls-54{fill:#0f0e09;}.cls-55{fill:#040303;}.cls-56{fill:#768981;}.cls-57{fill:#9ba19d;}.cls-58{fill:#aebbb7;}.cls-59{fill:#efe9d9;}.cls-60{fill:#d2d2c0;}.cls-61{fill:#c0d0cc;}.cls-62{fill:#838e86;}.cls-63{fill:#424748;}.cls-64{fill:#e2e0d0;}.cls-65{fill:#c9d1c2;}.cls-66{fill:#677870;}.cls-67{fill:#e0decc;}.cls-68{fill:#a3ab9c;}.cls-69{fill:#879a90;}.cls-70{fill:#627065;}.cls-71{fill:#5b7d7c;}.cls-72{fill:#9db09c;}.cls-73{fill:#030302;}.cls-74{fill:#91a9a3;}.cls-75{fill:#ced9d5;}</style></defs><path class="cls-59" d="m143.74,315.13l-89.66-7.48V82.93h109.78l20.26,35.82,75.79,1.36.3-33.43,117.86-1.18c48.85,133.78,32.9,91.34-18.37,217.45-46.65,13.69-166.83,13.23-215.97,12.17Z"/><path class="cls-18" d="m531.19,313.62h0v-76.39c0-1.38-1.12-2.51-2.51-2.51h-1.95c-1.38,0-2.51,1.12-2.51,2.51v73.16h-4.48s0-162.16,0-162.16c0-1.38-1.12-2.51-2.51-2.51h-1.95c-1.38,0-2.51,1.12-2.51,2.51v162.18h-5.64s0-28.39,0-28.39c0-1.38-1.12-2.51-2.51-2.51h-.21c-1.38,0-2.51-1.12-2.51-2.51v-58.12c0-1.38-1.12-2.51-2.51-2.51h0c-1.38,0-2.51-1.12-2.51-2.51v-31.36c0-1.38-1.12-2.51-2.51-2.51h-.52c-1.38,0-2.51,1.12-2.51,2.51v31.36c0,1.38-1.12,2.51-2.51,2.51s-2.51,1.12-2.51,2.51v58.12c0,1.38-1.12,2.51-2.51,2.51h-9.5c-1.38,0-2.51,1.12-2.51,2.51v28.47h-4.9s0-49.87,0-49.87c0-1.38-1.12-2.51-2.51-2.51h-9.5c-1.38,0-2.51,1.12-2.51,2.51v49.91h-5.04s0-56.19,0-56.19c0-1.38-1.12-2.51-2.51-2.51h-3.71c-1.38,0-2.5,1.12-2.51,2.5l-.1,36.97c0,1.38-1.13,2.5-2.51,2.5h-7.83c-1.38,0-2.51,1.12-2.51,2.51v14.26h-5.52s0-20.28,0-20.28c0-1.38-1.12-2.51-2.51-2.51h-2.69c-1.38,0-2.51,1.12-2.51,2.51v20.3h-1.02s0-20.3,0-20.3c0-1.38-1.12-2.51-2.51-2.51h-2.69c-1.38,0-2.51,1.12-2.51,2.51v20.32l-36.06.07c74.46-54.36,80.68-174.45,7.04-232.07-31.62-26.8-68.61-38.96-109.84-39.06-3.78,0-4.77,1.26-4.72,4.91.21,13.99.29,27.98.03,41.96-.08,4.61,1.63,5.48,5.84,5.44,38.44-1.56,75.8,18.7,95.17,52.01h0c17.14,33.31,16.62,64.49.89,98.29-7.76,10.58-.07,15.7-2.7,28.23,0,11.95-8.96,8.38-11.2,12.9,3.74,8.23-30.59,7.72-36.71,10.25,4.34-14.71,30.81-3.19,33.51-14.76,3.77-3.26,10.36-1.56,9.57-9.85-.86-3.92,2.15-10.52-1.34-13.11-5.63-2.61.88-18.68,2.34-23.6,11.72-30.89-12.19-31.45-11.2-59.44-.74-3.64-3.46-6.68-6.95-5.45-7.87,3.48-22.05-35.81-30.45-42.36-13.84-14.33-37.3-9.17-55.43-12.3-12.22-3.46-31.18-1.69-43.26,1.97-6.87,1.54-7.02,1.57-8.6-5.03-1.48-6.15-3.68-12.04-6.26-17.76-18.8-46.42-74.18-51.95-118.97-51.95-26.9,0-68.89.36-68.89.36-3.55-.03-5.25,1.06-5.22,4.78.07,10.36.14,73.86.16,136.97-.54,33.12-.8,66.27-.02,92.01-.02,22.81-.07,39.03-.14,42.8-.08,4.51,1.73,5.82,5.83,5.76v-1.61c.31.45.64.78.99.98,162.17-2.01,354.15-1.51,519.44-1.99,3.67,0,4.57-3.53,4.57-6.33ZM73.12,132.15c.65-61.59-8.84-39.16,47.92-43.92,39.67,17.02,20.57,36.76,35.69,37.08,29.69-.26,132.3-15.9,147.67,9.65-42.5-4.66-84.68-2.98-127.09.29-5.16.77-41.11-1.65-30.95,8.81-27.99,14.15-38.88,11.45-69.62,10.88-9.01-1.74-3.12-16.63-3.63-22.79Zm222.96,8.58c-8.55-.7-17.96-1.33-26.68-1.42,9.07-.04,18.84.72,26.68,1.42ZM28.68,160.16s0,0,0,0c0,0,0,0,0,0,0,0,0,0,0,0Zm112.53,104.22c-18.31,14.22-42.74,8.54-64.27,10.25-11.49,2.09-4.15-27.76-6.13-35.46.03,0,.06,0,.09,0,0-9.48-.02-18.97,0-28.45.02-7.42.62-8,7.74-8,12.98-.01,25.97-.21,38.95-.03,31.66-1.13,52.24,42.84,23.62,61.7Zm16.18-80.11c-4.82-2.06.14-14.91.4-19.5-.15-5.56,7.57-19.9-.75-21.07,4.45-.29,8.9-.55,13.36-.79-10.9,6.46-6.84,26.74-10.26,37.96-.2,1.71-.61,3.22-2.74,3.41Zm104.07,67.4c-10.01-.12-6.49,9.22-12.11,10.22-7.22-6.25-1.28-23.04-3.38-32.32-.1-1.94-.42-4.32-3.06-4.32-6.94,2.76-1.53,21.69-2.95,28.51-.15,7.28-.18,7.28-7.37,7.51-17.23,4.68-13.83-21.06-30-21.15-6.82-2.21-34.29-.38-35.83-5.51-8-30.03,20.71-20.6,39.19-23.32,7.14.82,6.37-5.15-.14-4.05-11.93.43-25.64-1.27-37.11-1.97,19.12-2.61,40.43.05,59.91.06,13.45-.88,7.62,4.94,14.17,11.25,2.68-.41,2.02-4.4,2.14-6.42-1.37-5.15,9.89-6.82,3.68-11.53-4.46-.64-8.11-27.6-11.06-15.88-.68,4.01,3.89,13.57-2.38,13.48-6.06-1.7-25.65,3.94-25.86-4.15-.34-3.89,15.22-.74,18.7-1.77,8.77-.23,11.19-3.67,8-11.79-5.56-11.76-9.99-29.69-19.83-37.78,4.91-.63,9.83-1.02,14.76-1.27-15.17,2.59-.6,13.87,12.18,44.6,7.13,14.27,26.43,1.27,36.15,10.71-3.46,1.54-9.44-1.31-10.27,3.37,2.73,5.69,23.94-.11,30.6,1.02,1.81,0,4.71.35,4.61-2.29-2.92-5.5-13.35.35-17.47-6.16,11.37,3.17,27.48-4.42,35.51,4.56,1.81,3.13,6.52,5.33,8.81,1.43,1.75-2.95-2.51-3.47-2.49-5.77,10.56-3.68,11.84,4.16,16.87,10.95,4.85,5.57,3.08,9.21-4.39,8.29-11.65.1-23.24,1.1-34.86,1.78-10.01-1.43-40.58,7.35-44.28-2.19-2.67-3.99-5.33-14.64-10.43-14.64-3.59,3.79,1.95,10.13,3.54,14.05,6.2,11.04-16.61,44.99,8,42.21-.52.06-1.04.15-1.55.28Zm1.74-.3c27.53-2.39,54.97-5.67,82.48-8.21-20.31,2.67-40.68,5-61.07,6.63-7.13.54-14.23,1.61-21.41,1.57Z"/><path class="cls-59" d="m282.7,150.41c8.26,1.03,22.05-1.64,26.41,4.81-.23,3.31,9.01,26.23,2.68,22.76-12.55-9.47-14.23,5.01-24.05,5.66-3.18-1.15-5.85-15.25-8.92-19.51,15.96-1.3,14.4-2.95,3.87-13.72Z"/><path class="cls-59" d="m238.68,277.69c-4.67-2.91-2.28-10.66,3.21-8.85,35.55-.39,71.31-7.04,106.48-7.86,5.85,9.3-39.31,6.06-45.87,8.77-8.64,1.8-27.14-.53-32.57,5.88-9.86,3.78-20.89,1.64-31.25,2.06Z"/><path class="cls-59" d="m287.31,254.66c17.37-1.6,34.71-3.38,52.03-5.4,1.52-.16,3.84-1.99,4.28,1.22,5.69,8.92-77.62,10.52-84.37,8.39,8.77-3.96,19.63-1.79,28.87-3.7-.33-.06-.6-.23-.82-.51Z"/><path class="cls-71" d="m158.38,263.82c-11.58-29.57,27.52-19.48,43.72-17.9,14.44,4.96,13.88,24.91,23.16,35.89-14.66-5.45-10.21-33.78-31.27-32.95-15.06.19-39.28-9.71-35.61,14.97Z"/><path class="cls-59" d="m178.9,197.52c-3.37-1.34-19.79,3.14-18.74-4.32.16-1.78-.46-4.14,2.85-4.04,9.62.31,19.24.36,28.86.64,3.79.11,4.29,3.74,5.59,6.16.87,3.41-14.21.77-18.56,1.55Z"/><path class="cls-71" d="m176.33,287.79c-2-11.78,13.9-20.56,19.43-8.18,9.72,19.37-17.14,32.44-19.43,8.18Z"/><path class="cls-71" d="m225.67,145.7c-.65.39-1.29.79-1.94,1.18-1.28-3.42,2.1-1.59-.29-8.14,28.04-3.24,56.47-.8,84.47,1.87,1.99.22,4.07.24,4.38,3.38-7.33-1.09-94.06-9.8-86.62,1.72Z"/><path class="cls-59" d="m238.68,277.69c9.26-2.12,18.83.22,28.09-1.93,8.24-3.41,17.46-2.73,26.21-4.18,11.5-.65,23.48-.83,34.63-3.56,6.42-2.39,20.06,2.32,20.76-7.04,1.77,6.53.78,8.66-5.1,9.26-34.45,2.41-70.76,10.99-104.59,7.45Z"/><path class="cls-59" d="m183.65,170.95c.84,14.62-2.4,8.7-12.86,6.74-7.77-.77-1.6-13.72-1.29-18.86,5.04-1.85,7.5,4.33,12.06,5.36,3.3,1.15,2.6,4.12,2.1,6.76Z"/><path class="cls-71" d="m194.5,132.75c1.19,1.2,4.7-1.95,4.27,2.28-11.67,2.67-23.77,1.19-35.52,1.15-1.42,3.59-11.52.45-15.88,2.48,2.53-10.69,38.17-8.06,47.12-5.91Z"/><path class="cls-71" d="m285.51,250.89c9.77-2.17,17.38-3.63,27.93-4.37-2.17-.44-3.15-.64-4.12-.84,12.58-1.43,24.92-3.48,37.57-4.42,3.03,7.76-53.36,8.07-61.38,9.63Z"/><path class="cls-72" d="m165.57,235.69c2.18-8.35-1.75-21.31,10.41-22.61-4.94,4.85-4.23,11.26-5.32,17.13.36,3.26,5.23,4.61,3.74,8.65-2.8-.45-10.08,1.85-8.83-3.17Z"/><path class="cls-71" d="m180.65,306.61c19.26,7.54,26.06-19.15,16.59-31.69-.18-1.04.26-1.44,1.29-1.25,7.42,9.78,6.73,26.24-1.41,33.65-4.01,6.18-21.86,2.57-16.47-.7Z"/><path class="cls-24" d="m253.29,251.9c2.66,1.04,5.5.53,8.23.91-4.65.11-6.9,2.79-7.67,7.11-.66,3.73-3.42,3.92-6.38,3.71-3.48.78-2.8-11.37-2.85-13.93.58.27,1.65.81,1.68.76,3.84-6.67,4.89.06,7.02,1.45-1.21,1.84-1.33,4.03-1.94,6.06.7-2.01.75-4.22,1.93-6.07Z"/><path class="cls-59" d="m215.89,156.43c2.76,8.42,5.52,16.83,8.31,25.34-2.79,1.44-5.25-1.49-8.07-.22-1.24.56-.87-1.25-.87-2.14,0-7.62,0-15.23,0-22.85.21-.04.42-.09.62-.13Z"/><path class="cls-59" d="m329.42,184.31c-14.68,3.43-12.55-13.27-13.7-22.85,4.35,7.95,8.2,15.51,13.7,22.85Z"/><path class="cls-71" d="m172.57,300.69c-12.6-15.27,5.37-42.5,5.93-29.87-15.02,11.63-1.32,27.05-5.93,29.87Z"/><path class="cls-23" d="m227.4,255.78c7.42-6.9,11.24,6.34,13.88-10.07-1.62,9.33,5.64,20.31-8.81,17.07.8-4.07-5.75-2.62-5.06-7Z"/><path class="cls-59" d="m196.39,184.67c-7.76,3.8-9.14,1.19-8.98-6.39q-.02-8.68,8.3-8.45c2.49.28,8.5-1.44,6.67,2.94-2.94,1.76-8.3-1.37-10.7,1.19-.47,4.07,5.93,5.99,4.71,10.72Z"/><path class="cls-59" d="m272.42,231.26c-.68,2.92-.98,7.28-5.63,9.13-1.39.55-3.42,1.07-3.05-1.45.79-4.41-.19-13.35,5.86-13.82,2.69.5,3.11,2.66,2.82,6.14Z"/><path class="cls-59" d="m210.46,181.39c-6.9-2.15.08-25.48,0-32.25v32.25Z"/><path class="cls-11" d="m156.32,165.61c.11.47.17,1.34.33,1.36,7.03,1.37,5.85,9.73,4.69,14.75-1.11,0-1.12-1.44-2.34-.1-8.25,8.65-3.86-12.38-2.67-16.01Z"/><path class="cls-59" d="m143.56,189.95c3.14.63,15.45-2.24,15.73,1.07.17,2.59-1.72,4.76-4.35,5.63-4.21.1-13.91.48-11.38-6.7Z"/><path class="cls-59" d="m343.3,237.57c-24.05,4.72-9.55-5.46-9.64-21.69-3.4-.71-14.63,1.49-15.18-.95,17.91-.09,22.55-5.1,15.89,16.03-2.73,7.37,8.1,1.75,8.93,6.61Z"/><path class="cls-37" d="m183.65,170.95c-.41-3.02-.14-5.56-4.98-6.15-2.83-.35-5.35-4.94-9.18-5.98-.33-4.82,5.94-6.2,7.58-2.76,1.68,2.63,4.38,3,6.44,4.59,4.47,2.4,1.45,6.78.14,10.3Z"/><path class="cls-59" d="m287.31,254.66c1.62.18,3.23.36,5.55.62-32.03,6.58-56.85.83-5.55-.62Z"/><path class="cls-62" d="m143.56,189.95c1.14,4.03,3.54,6.54,7.96,6.65-11.45,2.58-33.27-6.43-7.96-6.65Z"/><path class="cls-7" d="m185.63,165.96c-.51-4.75-6.88-5.57-9.3-9.52-1.41-1.63-3.72-2.02-5.85-.64-.23-6.43,23.14.72,15.14,10.16Z"/><path class="cls-59" d="m273.4,219.71c-17.13-.52-12.75,13.48-15.39,26.15-2.48-5.16-.27-9.74.1-14.85q1.97-12.1,14.16-12.4c1.09-.37,1.34.13,1.13,1.1Z"/><path class="cls-59" d="m336.45,215.83c-1.13-1.61-3.01-.58-4.41-1.25,4.03-.25,24.85-4.65,21.16,2.84-1.79,3.66-1.56,13.78-5.22,14.06-2.93-7.39,7.95-15.74-6.44-14.26-1.81.04-3.63-.06-5.08-1.4Z"/><path class="cls-59" d="m274.44,186.46c-10.68-1.03-18.52-5.52-26.55-9.49,9.43.16,17.3,4.59,26.55,9.49Z"/><path class="cls-59" d="m289.55,218.94c-2.01,9.17-3.97,18.35-8.57,26.69,1.14-2.13,6.6-36.01,8.57-26.69Z"/><path class="cls-70" d="m182.34,179.89c6.51,4.79-16.52,5.45-15.79,1.81,5.73-5.14,8.62-3.06,15.79-1.81Z"/><path class="cls-49" d="m188.68,259.04c10.13-.43,19.31,10.28,20.47,22.51-5.21-8.63-7.85-19.14-20.47-22.51Z"/><path class="cls-59" d="m296.38,218.77c-1.38,8.89-3.24,17.63-8.27,25.42,2.5-4.96,3.97-25.31,8.27-25.42Z"/><path class="cls-59" d="m316.11,184.68c-5.66-.39-14.09,1.31-16.83-2.02,2.96-6.29,11.55-1.18,16.83,2.02Z"/><path class="cls-38" d="m196.39,184.67c-.5-3.44-12.12-13.04-3.83-12.83,3,.48,6.23-1.31,9.04.92-1.03,3.08-4.6,1.88-6.31,3.77.95,2.36,4.3,6.11,1.09,8.13Z"/><path class="cls-8" d="m182.34,179.89c-5.33-.01-10.71-.36-15.79,1.81-.29-3.1-.53-6.19.68-9.17.38,1.9.16,3.45,3.41,3.64,3.96.24,7.81,2.39,11.7,3.72Z"/><path class="cls-52" d="m296.38,218.77c-2.68.19-4.5-2.7-6.83.18-.41-.89-1.23-1.04-2.08-1.15,10.03-2.1,22.38-3.81,32.1-1.91-7.35,2.49-16.75-1.01-23.19,2.88Z"/><path class="cls-71" d="m323.59,165.71c-3.85-6.12-8.22-11.87-12.98-17.7,4.1.2,7.92,4.89,13.96,16.58.48,1.07-.08,1.24-.98,1.12Z"/><path class="cls-47" d="m197.5,183.81c-1.34-2.62-2.68-5.24-4.03-7.85,9.04-4.21,11.98,6.12,4.03,7.85Z"/><path class="cls-3" d="m154.48,182.77c4.2.18,4.04-3.45,5.41-6.42,1.14,1.82-.2,4.1,1.44,5.36.55,5.54-10.89,6.37-6.85,1.06Z"/><path class="cls-22" d="m335.46,278.66c-6.51.96-13.03,1.92-19.54,2.88-.07-.5-.14-1-.2-1.5,6.56-1.23,13.07-2.8,19.75-1.39Z"/><path class="cls-28" d="m178.5,270.82c.01-1.57-.79-2.57-2.18-3.17,3.68-1.94,7.35-2.9,11.95.44-3.9.75-6.96,1.37-9.77,2.73Z"/><path class="cls-58" d="m172.57,300.69c1.16-.76.75-2,.93-3.06,2.07,3.24,4.27,6.38,7.15,8.98-1.18.63-.32,1.48-.25,2.25-3.77-1.61-6.01-4.69-7.83-8.17Z"/><path class="cls-63" d="m132.54,190.87c-.22,1.79.34,2.95,2.38,2.86,6.29,2.52-5.7,2.72-7.55.67,1.61-1.43,1.8-4.82,5.18-3.52Z"/><path class="cls-61" d="m202.39,179.75c-1.96-3.63-4.96-4.83-8.91-3.79,0-.69-1.3-2.25.71-1.7,3.18,1.04,5.39-1.28,8.19-1.5,0,2.33.01,4.65.02,6.98Z"/><path class="cls-57" d="m287.43,217.77c-.07.41-.13.83-.2,1.24-4.86-1.76-10.93,3.12-14.96-.4,4.98-1.55,10.08-1.06,15.16-.85Z"/><path class="cls-71" d="m264.42,252.66c6.93-1.87,13.99-2.3,21.12-1.78-6.99,1.18-14.03,1.78-21.12,1.78Z"/><path class="cls-27" d="m310.58,227.68c6.9-6.92,7.86,9.52.85,6.13-1.19-1.08,2.22-3.11-.8-3.82-.79-.76-.88-1.53-.06-2.31Z"/><path class="cls-53" d="m203.15,193.07c-3.82-1.08-4.59-3.75-6.08-5.77,3.6-2.66,4.62,2.86,6.08,5.77Z"/><path class="cls-14" d="m163.69,136.97l-2.87-.5c5.52-.31,11.05-1.51,16.54.15-4.56.12-9.11.23-13.67.35Z"/><path class="cls-32" d="m198.52,273.67c-.43.42-.86.84-1.29,1.25-2.39-2.22-4.31-4.97-7.31-6.56,3.74.36,6.48,2.32,8.59,5.31Z"/><path class="cls-10" d="m348.14,231.73c.4,0,.8,0,1.2-.01.1,3.76-3.27,8.13-7.05,4.9,1.25-2.46,3.59-3.62,5.84-4.89Z"/><path class="cls-71" d="m339.57,181.35c-.44-2.39-4.26-6.47-1.56-8.26,2.9.31,1.47,6.11,2.44,8.43-.29-.06-.59-.12-.88-.18Z"/><path class="cls-71" d="m310.58,232.2c.96,1.86,2.69,1.56,4.32,1.53-3.6,4.7-9.45-3.73-4.32-6.06.31.72-.63,1.94.87,2.19.38,1.03-.02,1.76-.86,2.34Z"/><path class="cls-16" d="m325.5,197.57h-10.87c2.73-2.45,7.09,1.43,8.95-2.86,1.33.49,1.18,1.97,1.92,2.86Z"/><path class="cls-44" d="m315.41,233.08c-.71-2.46,1.71-5.88-2.27-7.33,3.73-4.06,5.73,5.71,2.27,7.33Z"/><path class="cls-33" d="m323.59,165.71c.33-.37.65-.75.98-1.12,1.84,2.29,2.89,4.96,3.14,8.14-1.37-2.34-2.74-4.68-4.12-7.02Z"/><path class="cls-60" d="m469.38,8.88c1.67-.71,3.34-1.42,5.01-2.14,1.71,2.51-1.53,1.55-2.18,2.74-.02,4.05,5.46,2.06,7.16.29,1.89,2.32-1.14,4.3-.46,6.55,9.53-1.58,2.24,7.13,5.06,6.18.84-.04,1.8,1.36,1.51,1.64-3.74,3.63,1.27,9.33-3.08,12.72-3.35,1.6-1.8-1.35-2.94-2.15-1.87,4-5.28.39-7.99,1.84-4.58,2.45-7.64-2-10.47-4.75-7.81-7.6-21.13-6.85-26.87,2.24-4,5.31-12.12,2.7-17.2.46-15.98,8.7-47.45-4.96-60.58,7.34-9.14-2.86-6.46,1.28-6.74-9.1,2.81-4.41,6.35-10.12,10.1-13.46-11.35.76,10.3-9.92,4.31,3.59,14.13,3.99,2.69-9.68,10.52-5.74,3.65,2.7,2.81-1.87,5.68-2.87,9.42-4.51-2.17-9.79,6.17-11.41,7.24,1.39-1.94,10.97,5.83,11.11,1.16-.03,1.54,1.87,2.61,2.41-1.82-2.6-.58-4.1,1.99-5.08,4.74-2.63,13.79,6.11,13.65-2.76-.5-2.52-1.67-6.42,2.2-6.15,2.11,3.79,6.02,5.76,9,8.23-.91-3.1,1.45-4.63,4.44-3.82.12-1.63-2.65-2.1-1.74-4.06,2.32-.51,4.21-3.13,6.65-1.05,2.88,1.89-1.19,4.04.01,6.64.18-3.48,5.52-3.47,4.57.2-1.65,1.62-.03,3.79-1.05,5.5.26-4.15,1.99-12.27,5.75-3.39,6.91-7.41,4.3,10.4,13.02,8.94,2.7.26,4.38-3.92,8.41-1.28-9.93-5.3,4.83-17.22,6.69-6.35,1.15.55-1.67-2.34.96-3.07Z"/><path class="cls-39" d="m390.41,68.82c-3.61.03-1.77-6.83-5.03-4.99-5.8-1.23-8.06-6.71-11.97-10.17-4.78-5.72-13.74-5-17.05-11.82,0,0,.06-.06.06-.06,8.37,3.14,34.06-1.82,37.12,2.89.14.42.71.89,1.04.26,2.32-4.46,6.48-1.68,9.39-1.79,22-.06,44.1,1.03,65.76.9,6.09,2.02,12.07-3.96,17.73.62,3.46-4,12.28,2.57,17.81-1.26,4.13-2.16,4.7,1.22,2.79,5.07,4.15.95-4.41-7.68,9.02-2.36.03,1.88-2.28,1.19-3.08,2.32,1.28,2.59,4.53-1.12,5.4,2.57.59,1.26-.04,1.61-1.1,2.11-2.84,1.45,1.77,7.29-2.56,7.11-7.49.5-3.35,7.92-12.38,1.43,5.47,7.16-8.99,6.59-7.8.07-.23-.56-1.17.51-.55.28,2.55,2.49-3.52,4.38-4.41,6.17-4.28-.59-8.49-2.74-12.88-.15-1.63.77-8.16-1.03-6.16-3.52.49.45,1.11.1.49.02-5.75-3.96-15.48,1.63-10.48-8.63-6.76,2.9.04,5.5-4.93,7.83-2.58,1.21-2.56-2.83-4.85-2.38-2.58.57-2.51.53-5-2.08-5.6-.52-1.53-3.23.15-5.26-1.14,3.29-6.92-1.03-10.92-.69,2.53.5,5.15.59,7.55,1.65.5,5.71,4.09,8.13,9.8,6.82,7.26,13.6-12.65,11.67-4.18,5.55-1-.36-1.83.18-2.72.56-8.81,4.62-1.74-9.11-6.62-4.91-1.05,5.88-3.22-.92-8.72.1-4.21-1.14-.54-6.63-3.7-5.97-2.88-4.12-8.01-2.99-12.18-2.84-4.27.25-11.96-2.86-14.5,2,3.04-7.01,20.86,16.41,1.3,7.06-3.9-1.8-5.06,4.76-7.4-2.44.91,2.2-2.14,4.61.68,6.82,1.09,2.22-3.7,2.02-4.9,1.09Z"/><path class="cls-31" d="m429.32,131.91c-3.41-9.23-7.44-18.19-12.05-26.88-1.52-3.68,1.43-5,3.58-6.71,3.1-2.44,6.23,3.06,9.79,3.73-1.85-1.59-5.78-1.41-5.88-4.7.08-2.58,2.23-2.06,3.75-2.03,3.73.06,4.31-3.57,6.49-5.3,2.86-.18,3.1,3.21,4.44,4.88,1,1.41,2.68,2.21,3.29,3.97-1.01-2.73-6.12-5-4-8.22,1.51-1.44,2.43.27,3.49,1.1,4.6-1.54,5.76,5.79,8.92,7.55,4.02-7.4-3.86-3.98-6.54-8.42,1.18-6.09,3.22-7.41,8.57-6.05,3.43.85,10.6-1.61,12.03,2.64-.51,3.92-6.51-.03-7.03,3.09-1.05,1.86,4.64,2.17,5.62,4.89,2.35,2.89,4.6,2.31,7.73-1.32,8.05-1.71,6.8,6.61,4.84,11.22,2.95-.88,5.26-4.49,8.86-1.85,2.18,1.7,1.02,1.78.14,3.32,2.53-.59,1.13-2.53-.1-3.25-.02-1.19.88-2.35,1.69-1.92,4.22,2.26,9.92-.02,13.27,4.79,2.31-2.83,1.14-8.74,4.61-9.55,3.05.36,7.51,5.13,3.77,7.77-4.26,1.61,2.56,2.07,3.85,3.13-3.41,8.14-8.18,15.43-14.01,22.03-15.39-4.24-6.55-3.43-22.46.62-.22.15-.9-.05-.91-.21-.21-4.07-5.71-3.83-6.02-7.56,1.54,4.38-4.41,2.13-6.74,3.17-3.48-.23.93-4.36-.98-6.55-2.73,3.39.89,6.19.18,9.15-.89.99-1.91.3-2.59-.34-6.93-3.71-18.79,3.68-22.81-4.98-1.73-2.74-2.5-1.9-3.85.49-1.78,2.77,1.38,7.65-2.92,8.28Z"/><path class="cls-71" d="m429.32,131.91c1.88-1,.35-2.44.52-3.66.53-7.37.76-5.99,6.5-9.74-.13,6.44,4.03,9.05,10.27,6.91,1.06-.36,1.94-1.54,3.02-.26,1.96,2.34,3.43,1.88,5.69-.04,3.29-2.79,2.86,3.38,5.49,2.74-3.38-8.25-3.37-8.3,1.85-10.47,2.21,2.79.63,5.1-1.07,7.66,2.5-2.06,5.4.13,7.8-1.27.73,2.21,2.78.12,4.02,1.25,4.04.54.82,6.88,4.93,3.29,1.14-.9,1.56-2.84,3.31.1,1.21,2.05.64-1.99,2.66-2.43,2.5-.54,6.42-.63,6.81.01,1.81,3,6.17.35,7.3,3.81,0,0,0,0,0,0-2.63.76-4.3,4.6-7.94,2.24,2.12,14.34-37.46,28.87-50.16,30.2-6.77,3.03-7.64-24.8-11-30.35Z"/><path class="cls-4" d="m436.4,90.8c-4.93-1.4-2.44-4.66-9.46-4.09-1.46-4.81-5.19.56-7.24-2.23-7.51-15.94,32.4-9.09,40.9-8.97,2.5,4.98,8.98.23,13.09,3.47-1.36-.81-1.29-2.02-.66-3.29,4.08-4.21,9.12,1.18,13.68-.92,9.04-2.71,12.98,6.96,16.85,13.29.1-4.5,3.56-4.79,4.12-.38.27-4.48,5.71-5.26,7.95-8.54,1.36-1.47,1.98-4.01,4.81-3.38,1.23,1.41-2.07,2.51-.27,3.96-2.75,3.73-2.37,7.92-1.75,12.14-.81,6.36-6.01,24.29-13.39,12.72,7.83-2.06,2.35-5.42-1.11-7.24,1.27,3.96-2.31,6.46-2.27,10.08.01,1.08-.75,1.98-2.02-.06-2.2-5.08-8.58-1.31-11.63-4.38-1.32-1.29-2.01-.25-2.64.83l.02-.02c-4.15-.67-6.86,1.52-9.13,4.6-3.84-4.97,3.38-7.91-.07-11.76-.17-5.92,8.64-1.26,11.94-4.87-7.58-1.01-15.14-1.65-22.97.15,1.84,1.93,4.8.89,6.27,2.97-1,6.96-5.32,5.11-8.81.68-4.06-3.28-7.04-1.56-5.2-8.52,2.17.56,4.56,2.53,7.3.1-3.64-.42-6.87-2.53-10.4-.32-.22.14-.85-.16-1.17-.4-6.01-4.59-5.84,1.81-7.82,4.38-.69.4-1.28.04-1.88-.25-2.4-1.51-4.69.05-7.02.25Z"/><path class="cls-30" d="m424.4,74.8c-2.02,2.86-5.97,3.66-6.67,7.37-.32,2.7-4.47,2.71-4.8-.04-.41-1.82-1.22-3.28-3.26-2.79-3.23.91.66,4.84-2.1,6.28-6.91-2.1-11.57-11.45-17.15-16.81,1.4-.21,2.8-.42,4.24-.64.32-1.46-5.7-1.26-.97-3.76-2.88-2.6.72-3.81.97-6.11,1.02,2.39,4.39,10.01,4.95,3.65-1.16-2.8,9.06,2.09,10.39,3.9-.21-6.69-5.67-7.84-8.59-11.04,3.32-1.4,6.42-5.24,10.26-.92,2.98-4.17,9.65.73,14.77-.99,5.34,1.45-7.07,3.53-8.43,5.92,3.29-1.84,5.87-4.75,9.45-1.97,1.44-.35,1.52-2.56,3.78-2.48-1.36,2.94-2.04,5.79.16,8.44-.35.4-.44.87-.34,1.38,1.1-5.05,5.46-1.69,7.06.12,2.69-.57-1.72-3.15.99-2.88,1.22.12,2.94-2.24,4.03.49.52,1.29,1.58,2.17-.25,3.18-2.44,1.3.94,4.3,2.18,1.95,2.38-1.92,4.68-1.7,7.05.63-6.51.91-3.38,5.54-11.27,4.69-6.34-1.11-14.14,3.2-18.79-1.98,1.68.71.94,2.58,2.52,3.28.22.42.14.79-.19,1.11Z"/><path class="cls-67" d="m482.41,36.86c.28-1.26-1.62-2.71-.16-3.65,3.2-2.06,1.88-2.9-.6-4.12-4.7-1.81,4.87-2.53,2.75-5.4-1.03-1.58-1.86.63-3.4.65,1.15-2.53,2.21-4.97,1.53-7.68-2.3-.77-1.01,3.8-5.29,1.28-1.04-.62-.45-1.71-.04-2.65,3.89-15.08,9.33-6.41,18.61-1.86.26,1.88-3.99,2.82-1.31,5.24,6.73-5.11,11.31,5.41,14.46,10.17.56.94,3.63,1.82.31,3.59-.56.3,2.38,2.03,4.39,3.47-2.14.49-3.37,3.66-5.05-.21-3.47.28-12.87,4.41-14.5-1.92-3.38,7.37-5.81,4.18-11.69,3.08Z"/><path class="cls-69" d="m402.47,82.81c2.02-.37,3.23,1.06,4.75,2.62.24-1.08.69-2,.46-2.23-3.93-4.42.92-6.22,4.81-4.88,3.12-.22-.37,4.63,2.83,5.14,3.08-1.1.19-6.32,6.02-5.58-3.29,2.16.63,6.14-2.04,7.74.49.46.46-.3.69-.48.51-.41-.07.2.38-.29.02-1.78,4.82,1.4,2.74-2.63,3.74-3.51,2.55,5.45,5.44,3.78,5.59-2.75,5.73,1.52,6.86,4.74-3.26,1.35,1.15,2.3-.09,3.87-3.14-1.13-5.18,3.77-9.1,1.87-2.41,2.05,4.29,4.54,5.71,5.97,2.6,1.25-.21,4.18-1.25,1.48-3.58-5.71-12.29-7.15-13.42,1.1-4.93-7.41-9.87-14.81-14.8-22.22Z"/><path class="cls-48" d="m452.36,19.81c-1.32.07-2.5.23-3.11-1.25.11.79.76.91,1.13,1.29-3.45,5.78-5.2-10.45-7.63-10.29-2.07.39.4,2.35-1.2,3.63-7.08-3.23-1.65-6.57-6.16-4.35h0c-2.48-6.62-2.12,2.45-6.64,2.65,2.8-2.47-2.78-5.91,2.3-7.78.92-2.45-4.31-2.03-5.7-.91,4.48-7.33,18.65,1.3,22.06,7.74-.26-10.41-14.93-11.03,17.72-8.55-1.36,4.15,4,3.92,4.25,6.88-1.86,3.05,4.33,3.23-1.64,5.29-2.14-1.11,1.06-4.86-2.94-5.51-3.21-.82-3.41,1.83-4.82,3.11-2.82,3.14,2.12,4.21,2.17,7.11-4.28-3.61-7.39,5.89-9.73.99.43-1.35,2.5-1.42,2.44-3.15-.07,1.64-1.99,1.81-2.5,3.09Z"/><path class="cls-48" d="m410.4,2.83c2.72,7.1,2.43,8.33-2.44,12.49-.71.61-1.38,1.42-1.59.2-.73-4.25-4.61-2.7-6.78-3.36-4-1.22-5.18,1.33-2.95,6.5-1.6-1.25-2.78-2.33-4.11-3.15-.74-.46-1.88-3.39-2.67.28-5.52-.38.98-10.55-3.46-12.92,5.02.13,9.49-3.42,14.9-1.77,2.14.65,4.96,3.58,7.39.05.57.56,1.14,1.12,1.71,1.68Z"/><path class="cls-48" d="m383.41,3.85c5.89,5.33,1.17,10.04-4.45,12.71-1.53,7.06-4.24.97-7.05.54,6.49,7.72-6.27,8.98-10.64,6.81-.65-4.53,6.88-4.52-1.87-8.09,7.96-2.18,5.86-10.89,11.33-6.59,1.7,1.86,3.73,2.85,6.07,3.41.27-3.92-4.17-2.75-5.59-5.6,11.46,3.71,3.92-6.5,12.2-3.19Z"/><path class="cls-48" d="m424.38,2.75c1.56,1.5,3.42,2.64,2.8,5.11-7-1.8-3.31,5.3-6.29,7.61-.39-11.32-4.49-3.16-6.33-8.17-1.12-1.46-.46-4.19-3.19-4.5,1.59-6.72,2.89,2.33,5.35-.11,2.83-2.58,4.2-2.59,7.66.05Z"/><path class="cls-48" d="m356.42,18.84c2.07.28,4.34-.69,6.37,1.08-6.37.56-7.03,10.73-13.62,11.24,4.12.59,1.48,6.97.24,8.68-9.92-3.48,3.25-16.49,7.01-21Z"/><path class="cls-5" d="m508.38,63.83c2.07-8.76,8.71-1.79,9.04-7.19,2.57,2.3,4.25,4.58,1.76,8.2-1.32,1.92,2.29,2.88,1.71,5.28-1.03,1.38-2.32-3.66-3.54-.28-.65.44-1.29.05-1.61-.6-2.03-4.38-3.44.49-5.18.36-5.52,2.51-3.55-3.11-2.17-5.78Z"/><path class="cls-5" d="m520.44,75.76c-1.99.73-2.67,2.7-3.92,4.14-3.41,1.56-8.67-4.37-4.09-5.61,3.48.25,3.74-2.55,4.97-4.5,0,0-.05.04-.05.04,3.62.62,2.24,3.85,3.09,5.92Z"/><path class="cls-31" d="m490.4,137.81c-1.03-1.54.1-3.64-1.73-5.18-1.47-1.24,1.05-2.13,1.23-1.97,3.21,2.88,5.62-1.56,8.52-.83-2.33,3-4.88,5.79-8.02,7.98Z"/><path class="cls-40" d="m518.42,91.86c-2.94-6.75-2.69-8.47,1.75-12.14-.45,4.06.27,8.3-1.75,12.14Z"/><path class="cls-30" d="m385.38,63.83c3.04-1.17.24-2.54-.14-3.84,7.35.45,2.84,5.02,3.09,7.89-1.46-1.01-3.05-1.91-2.96-4.05Z"/><path class="cls-67" d="m474.37,8.79c0-.68.01-1.36.02-2.05,1.75-.11,2.29-2.02,3.77-2.68-.53,5.84-.89,6.28-3.79,4.72Z"/><path class="cls-48" d="m435.39,8.85c-.67,2.69,2.05,5.29.27,8.08-2.65-3.23-2.68-4.37-.26-8.07,0,0,0,0,0,0Z"/><path class="cls-13" d="m470.48,26.74c-3.12-.15-3.97,2.34-6.24,2.46q2.58-4.28,6.24-2.46Z"/><path class="cls-20" d="m517.4,69.8c2.31,11.14-2.93,1.57-6.1,6.91-28.76-.49-57.7.46-86.9-1.91,2.8-9.96,28.61,2.18,35.26-8.95,4.26-4.95,9.76-3.41,13.66,1.03,14.35,4.67,29.84-.07,44.08,2.92Z"/><path class="cls-68" d="m471.28,64.91c-10.68-5.13-9.67,6.73-17.8,5.7,1.23-2.94-2.19-5.84-.08-8.79h-.01c1.25-.5,1.86,2.12,3.72.35,2.77-2.64-1.18-1.18-.99-2.02-.27-5.06,6.03-6.24,10.72-4.8-4.73-.86-3.85,3.78-7.06,6.1,5.95-1.01,10.25,1.21,14.96,2.47-.9,1.47-2.36.66-3.46,1Z"/><path class="cls-5" d="m499.37,69.82c-3.65,2.24-7.38-.9-11.05.15-.34-1.79.46-2.44,2.18-2.18.27-2.71,2.22-3.75,4.58-4.11-.43-2.49-2.78.47-3.03-1.99.75-1.33,3.84-1.32,4.41.61.7,3.14,5.03,3.87,2.92,7.52Z"/><path class="cls-41" d="m490.5,67.78c-4.44,4.36-11.89,2.71-17.18-.9,2.2-1.67,4.55.62,6.68-.18,3.26-1.22,7.41-.94,10.5,1.07Z"/><path class="cls-36" d="m499.37,69.82c-3.35-7.62,5.58-.75,6.06-5.72.16-1.21,1.86-.93,2.94-.27,1.74,2.34-1.28,3.92-1,6.03-2.67,1.5-5.33-.43-8-.03Z"/><path class="cls-5" d="m508.37,63.82c-4.96.3.12,6.37-6.99,2-1.82-1.69,5.55.82,1.03-2.28-.92-.63-1.24-2.51-.43-3.52,2.16-2.01,4.64,2.68,6.39,3.8Z"/><path class="cls-65" d="m427.46,56.87c-6.11-1.87-6.85,4.41-11.78,3.22,2.06-4.02,9.62-7.79,11.78-3.22Z"/><path class="cls-64" d="m509.37,44.82c.37,2.02,3.02,3.34,1.52,6.29-3-.67-4.01-3.84-1.52-6.29Z"/><path class="cls-68" d="m444.38,58.83c1.65.39,2.69-.75,4.15-1.81-2.41,10.16,2.98.13,4.86,4.8-4.2,2.6-7.06,1.19-9-2.99h-.01Z"/><path class="cls-68" d="m443.4,54.82c-3.61.93-6.93-.31-11.18-1.5,4.6-1.33,8.09-1.37,11.16,1.52l.02-.02Z"/><path class="cls-68" d="m450.85,52.16c1.33,1.99,2.66,3.99,4.65,6.98-4.74-1.09-4.39-4.46-4.65-6.98Z"/><path class="cls-5" d="m494.38,58.82c2.42-.83-1.4-5.92,3.5-5.14-2.14,4.86-2.54,5.45-3.51,5.15v-.02Z"/><path class="cls-68" d="m444.4,58.82c-1.46-1.03-.81-2.72-1.01-3.99,1.71.38,2.77-.63,3.59-2.3,1.27,3.39-3.09,3.75-2.57,6.28Z"/><path class="cls-30" d="m401.4,54.83c.45,2.07-1.67,5.42-3.59,3.12-.09-2.28,2.75-1.26,3.59-3.13h0Z"/><path class="cls-5" d="m494.37,58.84c-4.36.46-1.4-3.01-3.36-4.58,3.48.75,2.45,3.18,3.38,4.56,0,0-.01.02-.01.02Z"/><path class="cls-12" d="m471.42,94.89c-3.53.17-6.77-.62-9.87-2.88,2.45-3.94,40.23-3.77,25.95,2.39-3.38.92-9.77-1.45-11.31,2.24-1.18-1.7-2.76-2.31-4.77-1.75Z"/><path class="cls-25" d="m444.36,89.78c2.87,4.38,9.53,1.2,8.96,2.8.41,2.26.3,13.66-3.74,8.06.18-2.92-9.64-10.83-5.23-10.86Z"/><path class="cls-69" d="m444.36,89.78c-.77.44-.95,1.16-.94,1.97-1.16.5.55,2.19-.85,2.38-2.3.31-1.41-2.39-2.68-3.37-1.62,1.33.08,2.85-.49,4.07l.02-.02c-1.88-.68-2.22-2.52-3.02-4.02,2.47-1.78,5-3.11,7.96-1.02Z"/><path class="cls-71" d="m467.37,109.17c-.12,3.74,4.26,3.14,5.38,5.88.06,3.98-13.19-5.33-5.38-5.88Z"/><path class="cls-4" d="m485.37,103.82c6.78.42-1.27,7.74-3.14,2.85.44-2.67,4.93.32,3.14-2.85Z"/><path class="cls-74" d="m439.4,94.84c2.67.66,3.55,3.76,7.44,4.66-5.67,1.5-6.15-2.13-7.42-4.68,0,0-.02.02-.02.02Z"/><path class="cls-74" d="m444.99,112.35c.29-2.63.53-4.81.82-7.44q1.94,4.4-.82,7.44Z"/><path class="cls-71" d="m469.38,123.8c-6.68-1.72,3.69-6.41.01,0,0,0-.01,0-.01,0Z"/><path class="cls-43" d="m494.37,75.72c7.35-1.42,15.7-.08,22.15,4.18-2.27,4.3-8.71,4.41-9.54,10.34-.43-2.08.06-3.8-1.46-5.24-.49,1.8-.9,3.31-1.32,4.87-6.78-3.28-4.77-13.86-9.87-9.74-1.14-1.47,1.67-3,.02-4.42Z"/><path class="cls-29" d="m460.37,75.86c4.32-.14,8.64-1.3,12.98-.11-.36,2.53,1.02,3.51,3.84,3.35-4.72,3.23-9.31-3.84-12.98,1.62-1.75-1.25-4.32-1.86-3.84-4.86Z"/><path class="cls-69" d="m409.39,71.81c-.69-1.43-.18-3.19-1.35-4.71,1.61,1.9,5.13-1.57,5.55,2.03.33,2.68-2.22,2.78-4.2,2.68Z"/><path class="cls-69" d="m425.36,72.78c-.93,1.35-3.32,1.81-2.81-.35.02-3.07-2.72.03-3.81-2.14,3.17-1.21,5.11-.1,6.62,2.49Z"/><path class="cls-69" d="m409.41,71.84c1.67,4.98-1.22,4.1-4.52,1.45,1.73-.53,3.14-1.1,4.52-1.45Z"/><path class="cls-39" d="m431.39,62.82c.36,1.15,3.05,1.42,1.32,3.27-1.9,1.07-5.03-2.92-1.32-3.27Z"/><path class="cls-30" d="m420.37,84.85c-.26,1.21-.52,2.42-.93,4.35-1.05-2.26-1.97-3.73-1.81-5.9,1.07.6,1.9,1.06,2.73,1.53,0,0,0,.02,0,.02Z"/><path class="cls-60" d="m452.36,19.81c2.19-1.62.29-5.25,3.58-7.07-.17,3.35-.26,5.99-3.52,7.12,0,0-.06-.05-.06-.05Z"/><path class="cls-60" d="m450.38,19.85c-3.25-1.52-2.22-3.06-.07-4.89,1.63,1.81-1.57,3.36.07,4.88,0,0,0,0,0,0Z"/><path class="cls-36" d="m516.45,69.64c-2.13.41-4.4,1.77-6.06-.91,1.69-1.79,3.42-3.51,6.48-3.08-.14,1.28-.28,2.64-.42,4Z"/><path class="cls-19" d="m271.95,202.68c7.27,2.04,36.72-5.15,36.21,2.82.5,3.23-2.16,2.19-3.7,2.39-7.86-.63-32.38,5.86-32.51-5.22Z"/><path class="cls-17" d="m326.48,207.05c-4.24-.76-12.67,2.54-13.04-3.93-.13-3.41,2.33-2.03,3.78-2.09,5.92,1.37,20.82-4.44,21.94,3.43-.38,4.12-9.54,1.37-12.67,2.1,0,.16,0,.32,0,.49Z"/><path class="cls-71" d="m167.51,127.96c14.11-1.32,28.21-2.85,42.47-1.44-9.23-.98-38.88,9.59-42.47,1.44Z"/><path class="cls-71" d="m167.51,127.96c2.25,2.58,5.44,1.33,8.16,2.01-3.28,2.84-8.03,1.78-11.99,2.32-1.74.03.42.5-.08.66-1.3.9-2.77.79-4.24.75-2.94-1.63-6.45,1.38-9.28-1.13.39-7.19,12.4-2.85,17.44-4.6Z"/><path class="cls-71" d="m167.63,131.67c9.27-1.94,19.16-3.29,28.82-3.74-3.02,1.89-6.58,1.61-9.87,2.79h12.22c-8.18,5.17-17.56-.22-26.59,1.26-1.56.32-3.12.8-4.58-.31Z"/><path class="cls-34" d="m227.4,255.78c9.87,7.74-9.98,6.59-6.13-1.19,1.81-2.12,4.34.25,6.13,1.19Z"/><path class="cls-2" d="m344.83,204.78c-3.06-4.18-6.13-8.36-9.19-12.54,5.34,2.44,7.25,7.51,9.19,12.54Z"/><path class="cls-66" d="m234.8,172.26c-1.58-3.15-3.16-6.29-4.74-9.44,2.85,2.53,4.54,5.63,4.74,9.44Z"/><path class="cls-71" d="m150.07,132.56c3.03.9,6.37-.73,9.29,1.13-3.28.37-6.57.73-9.85,1.1-.05-.81-.39-1.68.57-2.23Z"/><path class="cls-56" d="m259.54,200.09c-1.89-.03-2.91-3.66-.4-3.18,1.62.01,2.48,3.07.4,3.18Z"/><path class="cls-59" d="m327.42,268.74c-.18,1.06-.62,1.97-1.84,1.94-7.74-1.99-32.65,7.89-34.07-1.72,12.66-1.03,25.32-2.06,37.97-3.09.38,1.72-1.38,1.91-2.06,2.87Z"/><path class="cls-35" d="m291.5,268.96c1.27.97,2.27,2.06,1.91,3.84-7.9.28-16.24,3.23-23.96,1.93.22-7.15,16.62-3.72,22.06-5.77Z"/><path class="cls-50" d="m249.15,275.59c-1.89-.19-15.39.01-9.16-2.86,7.19.82,18.96-2.14,24.6.73-3.39,3.68-10.68.57-15.44,2.14Z"/><path class="cls-1" d="m327.42,268.74c2.67-6.04,14.45-2.39,20.28-4.09-.08,5.78-15.67,3.82-20.28,4.09Z"/><path class="cls-75" d="m249.15,275.59c4.06-.8,8.18-.72,12.29-.69-4.01,1.72-8.17.86-12.29.69Z"/><path class="cls-54" d="m187.88,277.81c8.51-.33,8.14,18.29.06,17.78-7.73.83-9.41-18.36-.06-17.78Z"/><path class="cls-71" d="m167.63,131.67c1.53.1,3.06.21,4.58.31-4.21,1.06-7.14,1.37-11.62.23,3.14-.24,5.09-.39,7.04-.54Z"/><path class="cls-15" d="m253.29,251.9c.42,3.09-1.18,5.57-2.46,8.15-.09-2.99-.13-5.96,2.47-8.14h-.02Z"/><path class="cls-6" d="m348.14,231.73c-1.93,7.3-10.79,4.26-16.48,4.89,1.61-6.99,3.2-13.89,4.79-20.79,18.74-1.39,15.43-.61,11.69,15.9Z"/><path class="cls-59" d="m310.58,232.2c.6-1.45,1.05-4.36,3.21-3.38,2.36,2.06-1.12,4.33-3.21,3.38Z"/><path class="cls-21" d="m184.22,285.98c-.32-5.97,6.85-5.09,6.57.48.49,5.73-7,5.08-6.57-.48Z"/><path class="cls-45" d="m345.68,224.04c-1.53,2.76-.99,10.05-5.54,8.81-3.98-1.88.39-7.47.82-10.58,1.29-3.18,5.58-1.48,4.72,1.77Z"/><path class="cls-73" d="m488.47,354.62c-3.59,2.81-5.48,5.97-7.53,8.97-1.82,2.65-3.47,2.34-5.23.08-2.08-2.68-4.12-5.37-6.45-8.42-1.4,2.82-.61,5.31-.82,7.68-.14,1.57.16,3.22-.19,4.72-.55,2.34-2.33,3.45-4.72,3.27-2.18-.17-3.32-1.54-3.35-3.68-.1-8.84-.19-17.69-.18-26.53,0-1.55.35-3.24,2.24-3.79,1.68-.48,2.8.61,3.73,1.71,3.14,3.73,6.39,7.39,9.22,11.34,2.29,3.19,3.83,2.48,5.9-.11,2.97-3.7,6.18-7.21,9.3-10.78,1.24-1.42,2.65-2.9,4.71-2.1,1.92.74,1.85,2.68,1.85,4.41,0,8.32-.01,16.63-.04,24.95,0,2.73-1.02,4.63-4.11,4.65-3.04.03-4.25-1.77-4.31-4.52-.08-3.68-.02-7.37-.02-11.86Z"/><path class="cls-73" d="m240.84,356.12c0-5.19.1-10.14-.04-15.1-.08-2.74.98-4.53,3.7-4.52,2.67,0,4.43,1.52,4.44,4.48.03,8.71.05,17.42.1,26.13.01,1.75-.56,3.14-2.22,3.83-1.86.77-3.51.51-5.09-.94-4.58-4.21-8.56-8.95-12.49-13.74-1.03-1.26-2.07-2.53-3.63-4.44-.88,4.85-.05,8.73-.05,12.6,0,2.98.53,6.85-3.78,6.94-4.29.08-3.98-3.76-4.03-6.77-.14-7.78-.2-15.56-.3-23.34-.02-1.89.03-3.68,2.17-4.62,2.17-.95,3.55.34,4.89,1.58,4.57,4.23,8.11,9.37,12.21,14.01,1.19,1.35,2.25,2.83,4.1,3.9Z"/><path class="cls-51" d="m373.72,353.47c0-4.09.01-8.17,0-12.26-.01-2.87,1.18-4.42,4.26-4.37,5.54.09,11.08,0,16.62.07,2.5.03,4.43,1.03,4.45,3.89.02,2.89-1.89,3.8-4.43,3.83-2.9.03-5.8-.01-8.71.02-1.98.02-4.04-.2-3.87,2.93.16,2.95,2.21,1.96,3.72,2.04,2.37.12,4.76-.04,7.12.17,2.28.2,4.1,1.17,3.89,3.95-.19,2.55-1.91,3.21-4.11,3.22-2.5,0-5.01,0-7.51,0-1.5,0-2.89-.07-2.96,2.14-.07,1.98.31,3.46,2.53,3.57,3.29.16,6.59.18,9.88.22,2.35.02,4.37.71,4.5,3.36.13,2.85-1.7,4.39-4.44,4.44-5.67.1-11.34.07-17-.02-2.59-.04-3.69-1.58-3.66-4.14.06-4.35.02-8.7.02-13.06-.09,0-.18,0-.28,0Z"/><path class="cls-9" d="m193.89,370.89c-2.76,0-5.53.02-8.29,0-2.75-.02-4.07-1.46-4.07-4.19,0-8.43.03-16.86-.1-25.29-.04-2.84,1.26-4.27,3.91-4.32,5.78-.09,11.56-.05,17.34.06,2.11.04,3.42,1.21,3.47,3.49.06,2.39-1.17,3.82-3.45,3.99-2.62.19-5.28-.13-7.9.08-1.93.15-5.07-1.37-5.15,2.34-.08,3.7,3.01,2.38,5,2.53,1.97.15,3.95.06,5.93.11,2.65.06,4.44,1.47,4.38,4.06-.06,2.28-1.87,3.25-4.18,3.23-2.89-.03-5.8,0-8.68.15-1.28.07-2.73.27-2.44,2.25.24,1.68.07,3.56,2.65,3.53,3.16-.04,6.32.04,9.48.08,2.5.03,4.46.66,4.41,3.75-.05,2.94-1.41,4.32-4.41,4.19-2.62-.11-5.26-.02-7.88-.02,0,0,0,0,0,.01Z"/><path class="cls-26" d="m142.03,353.81c0-4.36.04-8.72-.01-13.07-.03-2.7,1.06-4.46,3.89-4.3,2.49.14,4.22,1.32,3.97,4.28-.14,1.7-.05,3.43,0,5.15.02.72-.48,1.66.49,2.1,1.09.49,1.66-.4,2.29-1.06,2.63-2.78,5.34-5.49,7.89-8.34,1.36-1.52,2.91-2.2,4.87-2.02,1.48.13,2.98.49,3.63,1.98.68,1.54-.72,2.33-1.56,3.28-2.45,2.76-4.77,5.65-7.39,8.24-1.72,1.71-1.49,2.9-.05,4.59,2.73,3.22,5.22,6.63,7.86,9.92,1.46,1.82,3.18,3.9.73,5.77-2.1,1.6-4.87,1.39-6.84-.66-2.65-2.75-5.02-5.77-7.6-8.6-.93-1.02-1.91-2.62-3.56-1.93-1.57.66-.52,2.33-.66,3.54-.15,1.3-.07,2.64.02,3.96.2,2.93-1.26,4.72-4.04,4.65-2.74-.06-4.14-1.87-4.06-4.8.11-4.22.03-8.45.03-12.68h.1Z"/><path class="cls-42" d="m519.12,336.81c3.55.03,6.72,1.01,9.29,3.61,1.01,1.02,1.68,2.15,1.16,3.53-.59,1.55-2.02,2.05-3.55,1.87-2.21-.25-4.39-.82-6.61-1.01-1.39-.12-3.26-.18-3.46,1.73-.17,1.63,1.24,2.51,2.72,2.93,1.01.28,2.07.4,3.1.61,6.79,1.33,9.93,5.17,9.34,11.43-.5,5.29-5.39,9.39-11.5,9.24-3.65-.08-7.41-.41-10.33-3.1-1.53-1.4-2.83-3.32-1.61-5.22,1.06-1.66,3.23-2.11,5.27-1.42,1.73.58,3.36,1.55,5.12,1.97,1.88.45,3.87.22,4.41-2.13.51-2.21-1.03-2.99-2.88-3.4-1.15-.26-2.28-.62-3.42-.93-5.86-1.59-9.26-5.74-8.67-10.58.65-5.31,5.51-9.12,11.63-9.11Z"/><path class="cls-46" d="m112.05,336.4c-10.04.1-17.97,6.61-18.26,17.84-.23,9,8.02,16.98,17.68,17.22,10.24.26,17.92-7.26,18.18-17.79.22-8.95-7.98-17.36-17.61-17.27Zm-.27,26.66c-5.32-.01-9.42-3.81-9.51-8.81-.09-5.1,4.3-9.54,9.43-9.51,5.01.03,9.62,4.39,9.52,9-.13,5.59-3.92,9.34-9.44,9.32Z"/><path class="cls-55" d="m23.52,355.67c-1.17-1.53-1.36-2.44-.26-4.24,3.48-5.68,1.11-11.28-5.33-13.24-4.36-1.33-8.89-.44-13.32-.83-3.46-.31-4.67,1.61-4.6,4.82.08,3.95.02,7.9.02,11.85.09,0,.19,0,.28,0,0,4.09-.05,8.17.01,12.26.07,4.36,1.12,5.36,5.35,5.27,3.42-.07,6.84-.26,10.26-.26,3.66,0,7-.87,8.59-4.41,1.69-3.78,1.65-7.77-.99-11.22Zm-11.3-10.48c2.46-.44,4.3.39,4.32,2.98.03,3.12-2.51,2.69-4.24,2.62-2.45.07-4.46.48-4.41-2.95.06-3.7,2.54-2.34,4.33-2.65Zm-.33,18.66c-2.22.37-3.5-.15-3.55-3.16-.06-3.53,2.09-3.18,4.27-3.25,2.52-.08,4.69.64,4.55,3.56-.15,3.17-2.75,2.95-5.27,2.86Z"/><path class="cls-55" d="m354.82,361.95c-1.25-1.48-1.68-2.38.44-3.9,4.18-3,5.13-7.51,3.94-12.37-1.12-4.56-4.19-6.99-8.8-7.98-4.85-1.03-9.72-.49-14.58-.75-3.61-.2-4.94,1.63-4.84,5.07.12,3.95.03,7.91.03,11.86.1,0,.21,0,.31,0,0,3.3-.09,6.6.03,9.9.1,2.97-1.09,6.81,3.83,7.19,3.24.25,4.09-1.34,4.21-7.2.02-.97-.57-2.31.76-2.77,1.38-.47,2.94-.56,4.07.64,1.17,1.24,2.21,2.61,3.27,3.95.99,1.24,1.82,2.61,2.92,3.73,2.16,2.22,4.88,2.34,7.18.66,2.76-2.01.42-3.81-.87-5.51-.64-.84-1.23-1.72-1.91-2.52Zm-9.45-8.13c-5.14.28-5.94-.69-6.22-4.34-.32-4.13,1.68-5.1,4.78-4.61,4.93.03,7.4,1.64,7.34,4.65-.07,3.92-3.29,4.16-5.9,4.31Z"/><path class="cls-26" d="m311.96,340.84c-5.11-3.93-11.24-4-17.31-4.04-5.31-.03-5.98.65-5.98,5.84,0,3.69,0,7.38,0,11.07.02,0,.04,0,.06,0,0,4.35,0,8.7,0,13.05,0,2.4.97,4.5,3.51,4.32,4.17-.29,8.4.23,12.54-.95,6.81-1.93,11.93-5.41,13.29-12.89,1.22-6.7-.73-12.27-6.12-16.42Zm-2.28,15.31c-1.25,4.31-6.19,7.56-10.3,6.79-1.53-.29-2.21-1.13-2.13-2.75.1-2.1.02-4.21.03-6.31,0-1.32,0-2.63,0-3.95.04-5.55,1.24-6.37,6.65-4.51,4.28,1.47,6.98,6.5,5.76,10.72Z"/><path class="cls-46" d="m75.69,363.26c-2.29-1.76-2.72-2.99.3-4.74,4.08-2.37,5.42-7.29,4.08-12.55-1.2-4.73-4.15-7.14-9.14-7.94-4.71-.76-9.43-.1-14.13-.52-3.43-.3-4.75,1.37-4.65,4.69.12,3.94.03,7.89.03,11.84.06,0,.12,0,.18,0,0,4.48-.03,8.96.01,13.44.03,2.38,1.47,3.61,3.7,3.82,2.23.21,3.82-.84,4.35-3.08.27-1.13.17-2.35.43-3.49.27-1.12-1.12-2.79.84-3.33,1.67-.46,2.97.25,4.04,1.7,1.79,2.42,3.34,5.08,5.86,6.87,2.2,1.57,4.56,1.6,6.49-.24,2.12-2.02.04-3.49-1.13-4.98-.41-.52-.76-1.11-1.27-1.5Zm-2.9-13.1c-.37,2.77-2.44,3.43-4.91,3.34-.78-.03-1.57,0-2.36,0-4.65,0-6.43-2.48-4.97-6.86.4-1.21,1.39-1.61,2.41-1.65,1.94-.08,3.86-.28,5.83.3,2.56.75,4.38,1.97,3.99,4.88Z"/><path class="cls-9" d="m447.49,365.19c-4.19-8.49-8.45-16.96-12.78-25.38-.84-1.64-2.01-3.18-4.5-2.92-1.46-.21-2.68.72-3.33,2.04-4.4,8.98-8.76,17.99-13,27.05-.67,1.43-.68,3.23,1.03,4.21,1.7.98,3.5,1.12,5.18-.18,1.39-1.08,2.18-2.62,3.06-4.09.52-.86.74-2.23,2.08-2.04,5.33.72,12.15-2.88,15.05,5.08.13.34.47.65.78.88,1.77,1.29,3.68,1.51,5.53.29,1.93-1.27,1.74-3.21.89-4.94Zm-14.8-8.38c-.56,1-4.39.83-4.64-.03-.78-2.61,1.34-4.71,2.9-7.45,1.13,2.93,3.02,5.21,1.75,7.48Z"/></svg>